<?xml version="1.0" encoding="utf-8"?>
<!-- Generator: Adobe Illustrator 15.1.0, SVG Export Plug-In . SVG Version: 6.00 Build 0)  -->
<!DOCTYPE svg PUBLIC "-//W3C//DTD SVG 1.1//EN" "http://www.w3.org/Graphics/SVG/1.1/DTD/svg11.dtd">
<svg version="1.1" id="Layer_1" xmlns="http://www.w3.org/2000/svg" xmlns:xlink="http://www.w3.org/1999/xlink" x="0px" y="0px"
	 width="2352.235px" height="1929.193px" viewBox="0 0 2352.235 1929.193" enable-background="new 0 0 2352.235 1929.193"
	 xml:space="preserve">
<g>
	<path fill-rule="evenodd" clip-rule="evenodd" fill="#ED1F24" d="M1920.282,14.289c3,0,6,0,9,0
		c16.448,2.314,27.686,12.686,38.25,23.25c10.249,10.249,20.047,22.477,24.75,36c11.06,31.802-22.337,49.826-35.25,69.75
		c26.086,7.567,50.093,13.022,71.25,25.5c17.491,10.316,33.801,23.719,48.75,35.25c1.518,1.17,3.218,4.896,6,3.75
		c18.755-28.158,21.383-65.635,45-90.75c10.906-11.598,24.197-20.506,42.75-24.75c16.49-3.772,43.955-8.369,61.5-5.25
		c11.522,2.048,19.269,9.108,28.5,15.75c19.938,14.345,41.646,28.524,57,47.25c21.277,25.95,27.777,74.794,11.25,110.25
		c-7.161,15.364-24.263,29.847-38.25,42c-14.393,12.505-28.646,25.931-45,33c-44.287,19.143-82.752-11.23-122.25-21.75
		c-20.246,37.697-8.229,107.372-20.25,154.5c-3.271,12.825-11.667,33.401-21.75,36.75c-12.761,4.238-29.923-0.052-39.75-3.75
		c-32.589-12.262-45.526-50.962-95.25-36.75c-1.587,7.664,0.154,18.654-3,24.75c-3.783-0.784-11.831,1.262-16.5-0.75
		c-4.916-2.118-4.888-10.688-9.75-15c-8.843-7.841-32.852-8.701-43.5-16.5c-6.881-5.04-7.911-14.887-12.75-21
		c-5.177-6.54-13.578-13.139-21.75-13.5c-26.646-1.179-34.521,38.981-63.75,22.5c2.264-37.197,46.232-49.09,40.5-92.25
		c-1.991-14.991-12.581-28.041-18.75-42c-6.568-14.863-9.963-29.71-16.5-45c-25.245,1.541-47.264,29.614-69.75,16.5
		c-2.92-27.25,11.615-33.051,20.25-49.5c4.985-9.497,8.71-18.305,14.25-27c34.317-12.306,47.215-50.506,81-65.25
		c7.814-3.41,21.948-8.835,31.5-6.75c6.094,1.33,11.312,10.703,16.5,16.5c5.523,6.173,10.686,12.959,19.5,13.5
		c10.818,0.665,18.471-6.136,27.75-12c-11.291-9.6-23.854-11.491-34.5-18.75c-21.02-14.332-33.475-43.467-21-69.75
		C1876.4,41.72,1897.992,22.526,1920.282,14.289z"/>
	<path fill-rule="evenodd" clip-rule="evenodd" fill="#ED1F24" d="M955.032,20.289c16.488-0.755,31.678-8.857,45.75-2.25
		c17.666,8.295,28.338,45.137,14.25,63.75c-13.536,17.884-57.9,21.262-69-0.75C935.922,60.989,953.221,38.259,955.032,20.289z"/>
	<path fill-rule="evenodd" clip-rule="evenodd" fill="#ED1F24" d="M823.782,174.039c-11.522-7.862-30.717-11.855-33.75-26.25
		c-4.071-19.324,10.024-39.315,24-41.25c18.06-2.5,41.372,11.74,43.5,30C860.181,159.267,839.828,165.95,823.782,174.039z"/>
	<path fill-rule="evenodd" clip-rule="evenodd" fill="#ED1F24" d="M1307.532,138.789c7.946-0.804,14.458-3.042,24-2.25
		c8.279,4.913,12.358,11.553,13.5,19.5c2.854,19.857-19.678,33.023-36.75,22.5C1296.577,171.323,1304.07,152.078,1307.532,138.789z"
		/>
	<path fill-rule="evenodd" clip-rule="evenodd" fill="#ED1F24" d="M511.032,1909.539c-0.25,0-0.5,0-0.75,0
		c-7.216-7.922-17.071-11.069-22.5-19.5c-18.026-27.994,2.147-64.604,15.75-84.75c16.041-23.756,31.675-44.516,45-69.75
		c19.824-37.54,37.227-86.494,23.25-137.25c-3.877-14.08-13.088-27.633-10.5-44.25c33.529-6.975,31.921,43.853,69,38.25
		c2.256-8.85,5.417-15.564,5.25-25.5c-0.219-12.98-5.926-25.435-4.5-37.5c2.868-24.266,35.918-41.914,23.25-71.25
		c-12.544-29.047-48.564-27.031-56.25-60c-61.077,10.444-79.691,64.312-96.75,117.75c-7.947,24.896-26.881,45.63-44.25,63
		c-17.683,17.684-36.438,36.265-66,41.25c-14.316-28.393,13.868-36.761,28.5-42.75c22.633-9.265,35.214-22.774,43.5-44.25
		c3.902-10.115,5.211-21.801,10.5-33.75c5.812-13.131,16.93-23.583,26.25-34.5c28.589-33.486,50.447-68.1,66-117
		c13.756-43.251,21.51-109.816,5.25-158.25c-3.889-11.584-12.736-34.133-26.25-35.25c-10.224-0.846-18.648,6.271-27.75,11.25
		c-8.678,4.747-21.364,9.907-24.75,15.75c-9.243,15.949-11.506,26.409-21.75,36.75c-9.745,9.837-25.024,17.868-44.25,10.5
		c-25.557-9.795-47.769-47.857-27-75c9.303-12.158,26.775-24.381,44.25-24c23.626,0.516,28,18.73,48.75,26.25
		c12.228-9.332,25.68-23.28,31.5-41.25c6.741-20.814,0.573-42.337-12.75-54.75c-22.583,2.815-42.677,9.944-63.75,7.5
		c-10.674-1.238-18.836-4.194-27-8.25c-10.933-5.431-19.718-12.96-35.25-10.5c-26.926,4.265-42.581,31.192-75.75,23.25
		c-10.088-2.415-17.549-10.577-20.25-16.5c-13.366-29.315,9.966-57.819,38.25-56.25c30.994,1.719,40.904,23.818,75.75,24.75
		c-9.468-12.353-24.921-28.958-36.75-44.25c-3.411-4.409-8.655-13.74-12.75-15c-7.253-2.232-19.137-0.059-28.5,0.75
		c-26.263,2.27-55.537,10.928-78.75,0.75c-17.541-7.691-34.947-29.531-39.75-51c-4.768-21.311-2.845-46.046,14.25-58.5
		c22.446-16.352,54.586-3.173,77.25,3c-15.932-46.762,23.026-89.138,66-72.75c24.978,9.525,42.055,37.934,30,66
		c-9.629,22.417-35,37.038-69.75,29.25c8.354,24.646,21.938,44.062,27.75,71.25c8.723-1.527,16.518-3.982,24-6.75
		c3.735-17.499-0.434-34.954,5.25-48c12.215-28.036,64.394-14.065,79.5-36.75c21.557-32.371,3.574-81.171-9.75-105
		c-24.815-44.38-58.34-75.467-108.75-91.5c-17.454-5.552-30.389-14.1-44.25-22.5c-16.238-9.84-32.605-13.946-52.5-14.25
		c-19.706-0.301-39.582,5.507-63,2.25c-28.01-3.896-33.398-29.728-33.75-59.25c9.533-1.363,18.986-10.139,29.25-11.25
		c14.454-1.565,24.266,6.75,30.75,13.5c5.267,5.482,7.953,13.426,12.75,20.25c19.725,28.062,86.741,20.236,126.75,26.25
		c14.419,2.167,25.407,8.634,35.25,16.5c43.042,34.397,56.16,83.562,102.75,102c32.485-24.632,42.891-68.656,60-107.25
		c3.603-8.126,8.405-15.413,11.25-22.5c6.518-16.238-1.751-42.029,3-63.75c2.11-9.647,9.049-17.213,15.75-20.25
		c29.595-13.41,78.103-4.004,108.75-15.75c8.77-3.361,18.673-12.975,30.75-16.5c4.56-1.331,12.902-2.582,21.75-2.25
		c7.045,0.264,17.469,2.141,21.75-0.75c9.178-6.197,4.216-29.906,1.5-39c-11.173-37.417-38.773-56.198-47.25-93.75
		c-3.263-14.453,5.757-38.568-0.75-51c-2.622-5.009-15.907-11.337-23.25-12c-16.895-1.524-26.912,13.361-42.75,11.25
		c2.141-27.391-3.757-46.743-12-63.75c13.489-8.364,26.609-21.584,47.25-21.75c17.894-0.144,30.176,12.899,35.25,25.5
		c7.183,17.836,3.277,40.492,16.5,52.5c3.296,2.994,7.937,4.393,12,6c16.333,6.46,36.898,8.952,45,27
		c17.684,39.393-14.73,92.408,4.5,132c14.482-24.731,16.984-57.937,25.5-87c6.474-22.094,17.184-40.542,30.75-54
		c4.619-4.582,10.87-7.12,14.25-12.75c-4.654-23.853-21.866-39.125-32.25-54.75c5.316-13.184,9.463-27.538,21-34.5
		c17.927,10.073,20.413,35.586,25.5,58.5c24.238-2.184,40.923-10.852,63.75-7.5c38.365,5.634,29.837,46.801,42,77.25
		c3.495,8.749,12.092,20.988,18,21c12.181,0.024,30.759-18.54,33.75-28.5c3.444-11.47,0.329-29.418,0-41.25
		c-0.733-26.355-0.079-52.994-9-70.5c-4.787-9.393-12.142-15.548-14.25-25.5c-3.176-14.995,1.938-27.653,5.25-39
		c11.244-2.166,25.736-2.701,33.75,1.5c16.773,8.793,10.478,38.33,9,60.75c-2.328,35.317,5.315,64.875,6.75,97.5
		c0.798,18.148-3.864,36.259-1.5,51.75c4.52,29.611,49.842,60.46,83.25,36.75c12.326-8.748,20.223-24.202,21-43.5
		c0.787-19.535-5.871-42.286,0-62.25c4.798-16.313,31.039-31.51,48.75-33.75c25.61-3.24,44.416,13.907,57.75,27.75
		c43.146,44.792,70.983,103.155,89.25,168c15.121,3.273,26.891-1.263,39.75,2.25c7.005,1.914,10.483,8.037,16.5,10.5
		c36.468,14.927,82.779-9.004,118.5,6c13.619,5.721,27.335,16.425,41.25,24.75c14.373,8.599,29.777,18.114,50.25,14.25
		c16.373-3.09,27.234-16.558,36.75-29.25c24.803-33.083,46.928-63.271,70.5-94.5c2.929-3.88,12.596-18.001,15-17.25
		c1.358,0.424,5.854,5.545,5.25,14.25c-0.745,10.744-16.352,21.602-24.75,30c-27.82,27.819-52.691,61.506-63,102
		c44.375,17.87,102.033,19.006,117.75,66.75c10.057,30.552-4.988,53.158-19.5,66.75c-11.514,10.783-43.99,28.354-46.5,46.5
		c-2.189,15.827,10.143,29.706,22.5,30c10.015,0.238,14.134-6.388,21.75-10.5c22.152-11.959,44.455-18.202,56.25-36.75
		c8.766-13.784,9.22-31.181,6-51.75c-2.879-18.394-6.614-38.273,0-54.75c5.52-13.751,23.229-30.95,39-33.75
		c25.928-4.603,43.934,27.382,54,40.5c9.296,12.115,18.418,21.613,33,31.5c26.544,17.998,52.512,36.11,61.5,67.5
		c5.408,18.888,1.11,42.757-4.5,54c-17.922,35.915-62.158,47.229-111.75,49.5c-8.895,0.407-25.262-0.726-33,2.25
		c-22.848,8.786-16.77,47.235-33,65.25c-9.216,10.229-29.771,21.39-48.75,12.75c-31.491-14.336-42.902-42.084-31.5-81
		c2.609-8.906,10.76-23.344,5.25-33c-5.185-9.086-27.164-9.065-39.75-6c-11.889,2.896-27.965,10.35-30.75,18.75
		c-3.029,9.136,1.004,23.053,3.75,32.25c9.306,31.163,23.316,50.781,34.5,78c23.822,8.6,48.869,21.153,78.75,25.5
		c31.225,4.542,64.683-1.4,99,2.25c-16.473,15.52-44.801,20.241-76.5,21.75c-31.104,1.481-60.879,4.682-73.5,23.25
		c42.797,12.185,102.264,7.765,145.5-1.5c14.193-3.042,32.932-10.748,45.75-9c14.738,2.009,15.382,24.605,18.75,36
		c-11.607,2.318-21.602,8.455-35.25,8.25c-9.676-0.146-20.123-5.277-30.75-8.25c-10.682-2.988-21.979-5.426-33-6.75
		c-23.117-2.778-49.707-6.043-70.5,3.75c-23.737,11.18-28.518,39.546-28.5,75.75c10.541,9.96,34.185,10.814,42,21
		c-24.436,2.906-50.748-3.714-64.5,8.25c-14.774,12.854-15.695,34.738-18.75,60c0,0.5,0,1,0,1.5
		c32.042,30.77,133.064-8.739,150.75,35.25c9.934,24.707-11.82,45.892-36.75,40.5c-20.969-4.535-31.998-22.4-53.25-31.5
		c-17.201-7.365-47.727-16.807-72-9.75c-8.301,2.413-20.635,10.611-20.25,22.5c0.37,11.426,13.979,14.651,17.25,21.75
		c-15.24,10.252-38.811,20.107-43.5,39.75c-5.722,23.969,28.623,37.697,45,46.5c20.404,10.969,38.947,21.731,48,37.5
		c-11.795,14.478-23.806,4.315-33.75-4.5c-15.85-14.051-35.352-28.732-51.75-37.5c-8.525,42.717,6.241,80.459,14.25,119.25
		c7.715,37.367,13.119,83.076,4.5,126c-12.435-8.936-25.01-20.342-39-30c-13.658-9.43-28.686-21.485-48.75-21
		c2.639,15.861,20.422,16.578,25.5,30c-3.135,2.865-4.539,7.461-9,9c-8.577-3.992-15.133-5.847-19.5-12
		c-2.594-3.655-1.719-6.541-5.25-8.25c-12.449-6.027-29.967,2.389-37.5,6.75c-9.668,5.597-21.406,15.408-30.75,15
		c-6.473-0.282-15.105-8.792-21-12.75c-20.865-14.012-48.104-25.922-78.75-13.5c-30.676,12.435-17.973,50.495-9,78
		c17.119,52.473,35.586,101.889,44.25,158.25c-6.744-3.345-12.174-10.193-17.25-18c-3.659-5.627-13.153-15.102-15-20.25
		c-2.518-7.016-1.726-14.802-3.75-21.75c-9.316-31.977-29.04-58.914-41.25-88.5c-10.511-25.469-19.395-56.295-57-49.5
		c-15.676,16.236-26.75,40.316-23.25,69.75c3.266,27.461,22.314,44.393,29.25,63.75c-43.565-7.684-45.8-56.701-59.25-94.5
		c-9.843,0.406-18.046,2.454-27.75,3c2.972,31.506,14.907,54.16,10.5,84c-3.91,26.471-14.681,50.319-33.75,63
		c-23.807,15.831-76.578,11.623-72.75-30c1.604-17.441,13.4-39.6,24.75-48c12.972-9.602,37.145-7.251,49.5-18
		c7.083-6.162,8.781-20.779,4.5-33c-34.899-16.275-68.839,5.582-88.5,21c-23.302,18.272-40.727,42.37-53.25,69
		c-26.64,56.646-29.223,134.174-45,198.75c-42.252,11.567-68.24-8.977-79.5-33.75c-14.602-32.126,7.399-63.816,21.75-87
		c30.269-48.897,54.376-107.528,59.25-179.25c-19.57,0.301-37.373,5.545-56.25,10.5c-19.956,5.238-41.31,1.812-60,7.5
		c-18.686,5.686-24.96,24.876-37.5,37.5c-10.413,10.483-20.748,16.664-36.75,20.25c-12.731-25.217-21.469-51.869-34.5-77.25
		c-12.186-23.734-28.392-48.82-62.25-49.5c-20.985-0.422-37.686,7.488-53.25,15c-15.876,7.662-30.773,15.792-42,26.25
		c-25.837,24.068-22.708,63.959-39.75,97.5c-14.117,27.784-50.308,43.929-66.75,69.75c-8.938,14.037-15.596,30.183-14.25,54
		c0.515,9.113,3.525,18.857,6,28.5c2.108,8.214,6.658,22.265,4.5,30c-0.875,3.136-6.718,6.542-10.5,9.75
		C535.637,1893.703,523.525,1905.037,511.032,1909.539z"/>
	<path fill-rule="evenodd" clip-rule="evenodd" fill="#ED1F24" d="M1361.532,283.539c21.087-8.972,38.314,3.139,37.5,23.25
		c-0.504,12.444-12.897,19.798-24.75,19.5c-6.343-0.16-16.025-2.618-18.75-9.75C1351.022,304.734,1359.99,293.764,1361.532,283.539z
		"/>
	<path fill-rule="evenodd" clip-rule="evenodd" fill="#ED1F24" d="M544.782,587.289c-5.031,8.556-11.949,27.885-24,30
		c-14.614,2.565-35.663-9.801-39.75-19.5c-8.282-19.655,10.531-40.425,29.25-40.5C529.923,557.209,536.661,573.033,544.782,587.289z
		"/>
	<path fill-rule="evenodd" clip-rule="evenodd" fill="#ED1F24" d="M1854.282,1042.539c24.543-2.243,47.152,20.979,35.25,49.5
		c-3.488,8.359-11.268,19.553-17.25,21c-10.279,2.487-27.023-3.412-35.25-9.75
		C1812.806,1084.625,1821.078,1045.574,1854.282,1042.539z"/>
	<path fill-rule="evenodd" clip-rule="evenodd" fill="#ED1F24" d="M1974.282,1126.539c-1.217,9.742,1.801,17.262-0.75,24.75
		c-2.679,7.866-20.81,18.962-30,19.5c-18.333,1.072-29.014-12.073-29.25-26.25c-0.274-16.495,13.275-30.099,27.75-31.5
		C1954.646,1111.817,1964.191,1119.394,1974.282,1126.539z"/>
	<path fill-rule="evenodd" clip-rule="evenodd" fill="#ED1F24" d="M71.532,1128.039c22.655-1.643,44.774,12.553,54.75,31.5
		c5.527,10.498,7.039,29.672-1.5,39c-21.798,23.812-108.707,21.492-102.75-29.25C24.46,1148.612,43.494,1130.071,71.532,1128.039z"
		/>
	<path fill-rule="evenodd" clip-rule="evenodd" fill="#ED1F24" d="M1770.282,1410.789c3.021-7.792-1.636-16.459,0.75-24
		c2.119-6.7,22.638-16.152,32.25-16.5c23.056-0.834,36.043,29.107,23.25,48C1814.103,1436.645,1783.881,1419.52,1770.282,1410.789z"
		/>
	<path fill-rule="evenodd" clip-rule="evenodd" fill="#ED1F24" d="M270.282,1622.289c15.716-2.768,28.83,3.604,39,12
		c18.428,15.213,43.171,48.198,31.5,78c-6.615,16.892-24.047,34.962-37.5,42.75c-46.193,26.741-98.644-18.27-95.25-63
		c1.767-23.289,14.228-38.391,27.75-50.25C244.463,1634.175,256.334,1624.746,270.282,1622.289z"/>
</g>
</svg>
